<?xml version="1.0" encoding="utf-8"?><svg viewBox="0 0 26 26" xmlns="http://www.w3.org/2000/svg" xmlns:xlink="http://www.w3.org/1999/xlink"><style>:root>svg{display:none}:root>svg:target{display:block}</style><svg fill="none" viewBox="0 0 26 26" id="phone" xmlns="http://www.w3.org/2000/svg"><path d="M24.962 21.413c0 .45-.1.912-.312 1.362-.213.45-.488.875-.85 1.275-.613.675-1.288 1.163-2.05 1.475a6.277 6.277 0 01-2.438.475c-1.275 0-2.637-.3-4.075-.912-1.437-.613-2.875-1.438-4.3-2.475a35.94 35.94 0 01-4.1-3.5 35.517 35.517 0 01-3.487-4.088C2.325 13.6 1.5 12.175.9 10.763.3 9.338 0 7.975 0 6.675c0-.85.15-1.662.45-2.412.3-.763.775-1.463 1.437-2.088C2.687 1.388 3.562 1 4.487 1c.35 0 .7.075 1.013.225.325.15.612.375.837.7l2.9 4.088c.225.312.388.6.5.875.113.262.175.525.175.762 0 .3-.087.6-.262.888-.163.287-.4.587-.7.887l-.95.988c-.138.137-.2.3-.2.5 0 .1.012.187.037.287.038.1.075.175.1.25.225.413.613.95 1.163 1.6.562.65 1.162 1.313 1.812 1.975a37.601 37.601 0 001.988 1.838c.65.55 1.187.925 1.612 1.15.063.025.138.062.225.1.1.037.2.05.313.05a.688.688 0 00.512-.213l.95-.937c.313-.313.613-.55.9-.7.288-.175.575-.263.888-.263.237 0 .487.05.762.163.275.112.563.275.875.487l4.138 2.938c.325.225.55.487.687.8.125.312.2.625.2.975z" fill="#E52929"/><path d="M20.625 9.75c0-.75-.588-1.9-1.463-2.837-.8-.862-1.862-1.537-2.912-1.537M25 9.75A8.744 8.744 0 0016.25 1" stroke="#E52929" stroke-width="1.2" stroke-linecap="round" stroke-linejoin="round"/></svg><svg fill="none" viewBox="0 0 18 18" id="telegram" xmlns="http://www.w3.org/2000/svg"><rect width="18" height="18" rx="3" fill="#2F89CE"/><path d="M4.208 9.168l2.069.772.806 2.595c.035.175.246.21.386.105l1.158-.947c.105-.105.28-.105.42 0l2.07 1.508c.14.106.35.035.385-.14l1.543-7.365c.035-.175-.14-.35-.315-.28L4.208 8.712c-.21.07-.21.386 0 .456zm2.77.386l4.068-2.49c.07-.035.14.07.07.105l-3.331 3.122c-.105.105-.21.245-.21.42l-.106.842c0 .105-.175.14-.21 0l-.421-1.543c-.105-.175-.035-.386.14-.456z" fill="#fff"/></svg><svg fill="none" viewBox="0 0 18 18" id="whatsapp" xmlns="http://www.w3.org/2000/svg"><rect width="18" height="18" rx="3" fill="#48C95F"/><path d="M12.567 5.428A4.692 4.692 0 009.24 4.05a4.7 4.7 0 00-4.708 4.692c0 .82.23 1.64.625 2.33L4.5 13.5l2.502-.656a4.813 4.813 0 002.24.558 4.7 4.7 0 004.708-4.693c-.033-1.214-.494-2.395-1.383-3.28zm-1.054 4.988c-.098.262-.56.525-.79.557-.198.033-.46.033-.724-.032-.165-.066-.395-.132-.659-.263-1.185-.492-1.943-1.673-2.008-1.772-.066-.065-.494-.623-.494-1.214 0-.59.296-.853.395-.984.099-.131.23-.131.33-.131h.23c.065 0 .164-.033.263.196.099.23.33.82.362.854a.209.209 0 010 .196c-.033.066-.066.132-.132.197-.065.066-.131.164-.164.197-.066.066-.132.131-.066.23.066.131.296.492.659.82.46.394.823.525.954.59.132.066.198.034.264-.032s.296-.328.362-.46c.066-.13.165-.098.263-.065.1.033.692.328.79.394.132.065.198.098.231.131.033.098.033.328-.066.59z" fill="#fff"/></svg></svg>