<?xml version="1.0" encoding="utf-8"?><svg viewBox="0 0 40 40" xmlns="http://www.w3.org/2000/svg" xmlns:xlink="http://www.w3.org/1999/xlink"><style>:root>svg{display:none}:root>svg:target{display:block}</style><svg fill="none" viewBox="0 0 40 40" id="TO" xmlns="http://www.w3.org/2000/svg"><g clip-path="url(#aclip0_486_1213)" fill="#E52929"><path d="M8.77 12.195a1.939 1.939 0 00-2.058 1.785 1.927 1.927 0 001.786 2.059c.045 0 .092.005.137.005a1.927 1.927 0 00.135-3.849zm.454 1.962a.594.594 0 01-1.185-.083.596.596 0 01.594-.55h.04a.593.593 0 01.55.633z"/><path d="M39.333 14.667A.667.667 0 0040 14V8.294A2 2 0 0038.633 6.4l-2.946-.985L31.006.927A3.32 3.32 0 0028.699 0H15.681c-.817 0-1.605.3-2.214.842L8.368 5.375l-5.581.934A3.322 3.322 0 000 9.593V14c0 .368.299.667.667.667h3.386a4.65 4.65 0 001.354 2.666H.667A.667.667 0 000 18v2.667c0 .368.299.666.667.666h2.49l12.832 7.334L3.157 36H.667a.667.667 0 00-.667.667v2.666c0 .369.299.667.667.667h38.666a.667.667 0 00.667-.667v-2.666a.667.667 0 00-.667-.667h-2.49l-12.832-7.333 12.832-7.334h2.49a.667.667 0 00.667-.666V18a.667.667 0 00-.667-.667h-3.407a4.65 4.65 0 001.354-2.666h2.053zM24.667 1.333h4.032c.516 0 1.012.199 1.384.556l3.592 3.444h-9.008v-4zM14.35 1.84a2 2 0 011.33-.506h7.652v4H10.42l3.931-3.494zm13.702 12.828a4.65 4.65 0 001.354 2.666H11.926a4.65 4.65 0 001.354-2.666h14.773zm-23-3.614a4.69 4.69 0 00-.214.285l-.043.06a4.62 4.62 0 00-.225.37c-.018.032-.032.067-.05.1-.049.095-.097.19-.14.29-.021.05-.038.1-.058.15a4.466 4.466 0 00-.095.259c-.019.057-.033.115-.05.173a7.439 7.439 0 00-.067.254c-.013.061-.024.124-.035.187-.01.05-.022.1-.03.152H1.334v-2.666h1.334V9.333h-1.31A1.99 1.99 0 013.005 7.62l5.717-.952h14.611v6.666H13.286c-.007-.051-.02-.101-.03-.152a3.303 3.303 0 00-.103-.44c-.016-.058-.03-.117-.049-.174a4.495 4.495 0 00-.095-.26c-.02-.049-.037-.1-.058-.149-.043-.1-.091-.195-.14-.29-.018-.033-.032-.067-.05-.1a4.368 4.368 0 00-.225-.37c-.014-.022-.03-.041-.046-.063a3.398 3.398 0 00-.211-.282c-.031-.038-.067-.074-.098-.111a4.387 4.387 0 00-.19-.209c-.039-.04-.08-.077-.121-.116a4.777 4.777 0 00-.194-.176 6.444 6.444 0 00-.338-.262c-.05-.036-.1-.067-.152-.102-.07-.045-.14-.088-.213-.133a5.473 5.473 0 00-.389-.198l-.17-.074c-.08-.032-.16-.06-.241-.088-.058-.02-.114-.04-.173-.058-.086-.025-.173-.046-.26-.067-.057-.013-.113-.028-.17-.039-.099-.02-.2-.033-.298-.046-.05-.006-.097-.015-.147-.02a4.697 4.697 0 00-.915.003c-.05.004-.098.014-.147.02-.1.013-.2.026-.298.046-.057.011-.113.026-.169.039a5.55 5.55 0 00-.261.067c-.059.017-.116.038-.173.058a4.345 4.345 0 00-.241.088 4.7 4.7 0 00-.559.272 7.579 7.579 0 00-.365.234c-.067.048-.137.1-.2.152a3.547 3.547 0 00-.332.287c-.041.039-.082.076-.122.116a4.014 4.014 0 00-.19.209 1.27 1.27 0 00-.1.108zM5.333 14A3.333 3.333 0 1112 14a3.333 3.333 0 01-6.667 0zm11.508 15.716c0 .01.008.018.012.027a3.355 3.355 0 00.29.616c.1.167.212.325.338.472.006.006.01.015.016.022L8.49 36H5.844l10.997-6.284zm1.835 2a3.285 3.285 0 002.649 0L28.823 36H11.177l7.499-4.284zm19.99 5.617v1.334H1.334v-1.334h37.334zM34.157 36h-2.645l-9.837-5.62a.667.667 0 00-.667.003 1.933 1.933 0 01-2.01 0A1.98 1.98 0 0118 28.667a.66.66 0 00-.023-.174c-.004-.016-.013-.03-.018-.044a.656.656 0 00-.049-.116c-.01-.017-.024-.03-.035-.046a.652.652 0 00-.07-.091.69.69 0 00-.06-.046.615.615 0 00-.077-.06L5.844 21.333h2.645l9.837 5.621a.667.667 0 00.667-.004 1.933 1.933 0 012.01 0A1.98 1.98 0 0122 28.667a.66.66 0 00.023.174c.004.015.013.029.018.044a.66.66 0 00.049.116c.01.016.024.03.035.046a.66.66 0 00.07.09c.019.017.039.032.06.046.024.022.05.042.077.06L34.156 36zM11.177 21.333h17.646l-7.499 4.286a3.28 3.28 0 00-2.649 0l-7.498-4.286zm11.982 6.284c0-.009-.008-.018-.012-.027a3.364 3.364 0 00-.29-.616 3.343 3.343 0 00-.338-.471c-.006-.007-.01-.016-.016-.022l9.008-5.148h2.645l-10.997 6.284zm15.508-8.95V20H1.333v-1.333h37.334zm-6-1.334a3.333 3.333 0 110-6.667 3.333 3.333 0 010 6.667zm4.554-4.34a3.303 3.303 0 00-.067-.252c-.017-.058-.031-.117-.05-.174a4.495 4.495 0 00-.095-.26c-.02-.049-.037-.1-.058-.149-.043-.1-.091-.195-.14-.29-.018-.033-.032-.067-.05-.1a4.368 4.368 0 00-.225-.37c-.014-.022-.03-.041-.046-.063a3.375 3.375 0 00-.211-.282c-.031-.038-.067-.074-.098-.111a4.282 4.282 0 00-.19-.209c-.039-.04-.08-.077-.121-.116a4.777 4.777 0 00-.194-.176 6.444 6.444 0 00-.338-.262c-.05-.036-.1-.067-.152-.102-.07-.045-.14-.088-.213-.133a5.473 5.473 0 00-.389-.198l-.17-.074c-.08-.032-.16-.06-.241-.088-.058-.02-.114-.04-.173-.058a4.956 4.956 0 00-.26-.067c-.057-.013-.113-.028-.17-.039-.099-.02-.2-.033-.298-.046-.05-.006-.097-.015-.147-.02a4.698 4.698 0 00-.915.003c-.05.004-.098.014-.147.02-.1.013-.2.026-.298.046-.057.011-.113.026-.169.039-.088.02-.175.042-.261.067-.059.017-.116.038-.173.058a4.344 4.344 0 00-.241.088 4.7 4.7 0 00-.559.272 7.49 7.49 0 00-.365.234 6.51 6.51 0 00-.338.262 3.507 3.507 0 00-.194.177c-.041.039-.082.076-.122.116a4.045 4.045 0 00-.19.209c-.032.037-.066.072-.097.11a4.673 4.673 0 00-.214.286c-.014.02-.03.039-.043.059-.08.12-.156.244-.226.37-.018.033-.032.067-.049.1-.05.095-.097.191-.14.29-.021.05-.039.1-.058.15a4.419 4.419 0 00-.095.26c-.019.057-.034.115-.05.173a7.37 7.37 0 00-.067.254c-.013.061-.024.124-.035.186-.01.051-.022.101-.03.153h-3.382v-6.67h10.558l2.986.996c.272.09.455.345.456.632v.373h-1.334V10h1.334v3.333h-1.381c-.007-.051-.02-.101-.03-.152-.01-.063-.021-.126-.035-.188z"/><path d="M32.77 12.195a1.94 1.94 0 00-2.058 1.785 1.927 1.927 0 001.786 2.059c.045 0 .092.004.137.004a1.927 1.927 0 00.135-3.849zm.456 1.962a.594.594 0 11-.593-.633h.043a.593.593 0 01.55.633zM22 8h-4v1.333h4V8zM20.667 28h-1.334v1.333h1.334V28z"/></g><defs><clipPath id="aclip0_486_1213"><path fill="#fff" d="M0 0h40v40H0z"/></clipPath></defs></svg><svg fill="none" viewBox="0 0 18 18" id="banner-call" xmlns="http://www.w3.org/2000/svg"><path d="M17.308 14.275c0 .3-.066.608-.208.908a3.44 3.44 0 01-.567.85c-.408.45-.858.775-1.366.984-.5.208-1.042.316-1.625.316-.85 0-1.759-.2-2.717-.608a14.643 14.643 0 01-2.867-1.65 23.952 23.952 0 01-2.733-2.333A23.673 23.673 0 012.9 10.017c-.683-.95-1.233-1.9-1.633-2.842-.4-.95-.6-1.858-.6-2.725 0-.567.1-1.108.3-1.608.2-.509.516-.975.958-1.392C2.458.925 3.042.667 3.658.667c.234 0 .467.05.675.15.217.1.409.25.559.466l1.933 2.725c.15.209.258.4.333.584.075.175.117.35.117.508 0 .2-.058.4-.175.592a2.834 2.834 0 01-.467.591L6 6.942a.446.446 0 00-.133.333c0 .067.008.125.025.192.025.066.05.116.066.166.15.275.409.634.775 1.067.375.433.775.875 1.209 1.317.45.441.883.85 1.325 1.225.433.366.791.616 1.075.766.041.017.091.042.15.067a.575.575 0 00.208.033c.142 0 .25-.05.342-.141l.633-.625c.208-.209.408-.367.6-.467a1.11 1.11 0 01.592-.175c.158 0 .325.033.508.108s.375.184.583.325l2.759 1.959c.216.15.366.325.458.533.083.208.133.417.133.65z" fill="#929DA3"/></svg><svg fill="none" viewBox="0 0 40 40" id="brake" xmlns="http://www.w3.org/2000/svg"><g clip-path="url(#cclip0_486_25)" fill="#E52929"><path d="M21.818 13.09a8.737 8.737 0 00-8.727 8.728 8.727 8.727 0 108.727-8.727zm0 16a7.273 7.273 0 01-7.273-7.272 7.28 7.28 0 017.273-7.273 7.273 7.273 0 010 14.546z"/><path d="M21.818 18.91a2.909 2.909 0 100 5.817 2.909 2.909 0 000-5.818zm0 4.363a1.455 1.455 0 110-2.91 1.455 1.455 0 010 2.91zM22.546 16H21.09v1.455h1.454V16zM22.546 26.182H21.09v1.454h1.454v-1.454zM18.182 18.91h-1.455v1.454h1.455v-1.455zM26.91 18.91h-1.456v1.454h1.455v-1.455zM18.182 23.273h-1.455v1.454h1.455v-1.454zM26.91 23.273h-1.456v1.454h1.455v-1.454zM28.364 12.364h-1.455v1.454h1.455v-1.454zM26.91 9.455h-1.456v1.454h1.455V9.455zM25.454 6.545H24V8h1.454V6.545zM16.727 29.818h-1.454v1.455h1.454v-1.455zM18.182 32.727h-1.455v1.455h1.455v-1.455zM19.636 35.636h-1.454v1.455h1.454v-1.455zM13.818 15.273h-1.454v1.454h1.454v-1.454zM31.273 26.91h-1.455v1.454h1.455v-1.455zM34.182 25.454h-1.455v1.455h1.455v-1.454zM37.09 24h-1.454v1.454h1.455V24zM19.76 10.505l-1.028 1.029 1.029 1.028 1.028-1.028-1.029-1.029zM23.874 31.072l-1.028 1.029 1.028 1.029 1.029-1.029-1.029-1.029zM26.962 32.102l-1.029 1.029 1.029 1.029 1.028-1.029-1.028-1.029zM30.045 33.134l-1.029 1.028 1.029 1.029 1.028-1.029-1.028-1.028zM11.532 22.847l-1.028 1.028 1.028 1.029 1.029-1.029-1.029-1.028zM10.504 25.931L9.475 26.96l1.029 1.028 1.028-1.028-1.028-1.029zM9.47 29.016l-1.028 1.028 1.029 1.029 1.028-1.029-1.028-1.028zM32.101 18.732l-1.028 1.028L32.1 20.79l1.029-1.029-1.029-1.028zM33.133 15.647l-1.029 1.028 1.029 1.029 1.028-1.029-1.029-1.028zM34.16 12.561l-1.028 1.028 1.029 1.029 1.028-1.029-1.029-1.028z"/><path d="M21.818 3.636V2.182A2.182 2.182 0 0019.636 0h-4.363a.726.726 0 00-.23.037A23.836 23.836 0 00.038 15.043a.726.726 0 00-.038.23v4.363c0 1.205.977 2.182 2.182 2.182h1.454C3.636 31.86 11.776 40 21.818 40 31.86 40 40 31.86 40 21.818c0-10.041-8.14-18.182-18.182-18.182zM2.182 20.364a.727.727 0 01-.727-.728v-4.244A22.378 22.378 0 0115.392 1.455h4.244c.402 0 .728.325.728.727V7.37A15.793 15.793 0 007.37 20.364H2.18zm19.636 18.181c-9.238 0-16.727-7.489-16.727-16.727H8a.727.727 0 00.721-.637c.134-1.036.38-2.055.734-3.039v.04h1.454v-1.455h-.873a14.349 14.349 0 015.681-6.151l.957.957 1.029-1.028-.624-.624a14.33 14.33 0 014.102-1.16.727.727 0 00.637-.721V5.09c9.238 0 16.727 7.49 16.727 16.728 0 9.238-7.489 16.727-16.727 16.727z"/><path d="M16 2.91h-1.454v1.454H16V2.909zM3.636 16H2.182v1.455h1.454V16zM8.727 7.273H7.273v1.454h1.454V7.273z"/></g><defs><clipPath id="cclip0_486_25"><path fill="#fff" d="M0 0h40v40H0z"/></clipPath></defs></svg><svg fill="none" viewBox="0 0 40 40" id="cooling" xmlns="http://www.w3.org/2000/svg"><g clip-path="url(#dclip0_486_1156)" fill="#E52929"><path d="M36.666 12H3.334a.667.667 0 00-.667.667v20.666c0 .369.299.667.667.667h33.333a.667.667 0 00.667-.667V12.667a.667.667 0 00-.666-.667zM36 32.667H4V13.333h32v19.334z"/><path d="M7.333 14.667H6v16.666h1.333V14.667zM10 14.667H8.666v16.666H10V14.667zM12.667 14.667h-1.333v16.666h1.333V14.667zM15.333 14.667H14v16.666h1.333V14.667zM18 14.667h-1.334v16.666H18V14.667zM20.667 14.667h-1.334v16.666h1.334V14.667zM23.333 14.667H22v16.666h1.333V14.667zM26 14.667h-1.334v16.666H26V14.667zM28.667 14.667h-1.334v16.666h1.334V14.667zM31.333 14.667H30v16.666h1.333V14.667zM34 14.667h-1.334v16.666H34V14.667z"/><path d="M35.333 6H33.71a3.314 3.314 0 00-6.084 0H24V4.667h1.333A.667.667 0 0026 4V1.333a.667.667 0 00-.667-.666H14.667a.667.667 0 00-.667.666V4c0 .368.299.667.667.667H16V6h-5.333v-.667A.667.667 0 0010 4.667H7.333a.667.667 0 00-.666.666V6h-2A4.672 4.672 0 000 10.667v24a4.672 4.672 0 004.667 4.666h30.666A4.672 4.672 0 0040 34.667v-24A4.672 4.672 0 0035.333 6zm-6.594.834a1.969 1.969 0 113.792 1.062 1.969 1.969 0 01-3.792-1.062zm-13.406-3.5V2h9.334v1.333h-9.334zm7.334 1.333V6h-5.334V4.667h5.334zm16 30A3.337 3.337 0 0135.333 38H4.667a3.337 3.337 0 01-3.334-3.333v-24a3.337 3.337 0 013.334-3.334h2.666A.667.667 0 008 6.667V6h1.333v.667c0 .368.299.666.667.666h17.333a3.333 3.333 0 006.667 0h1.333a3.337 3.337 0 013.334 3.334v24z"/><path d="M6 35.334H4.667v1.333H6v-1.334zM6 9.334H4.667v1.333H6V9.334zM35.333 35.334H34v1.333h1.333v-1.334z"/></g><defs><clipPath id="dclip0_486_1156"><path fill="#fff" d="M0 0h40v40H0z"/></clipPath></defs></svg><svg fill="none" viewBox="0 0 40 40" id="engine" xmlns="http://www.w3.org/2000/svg"><g clip-path="url(#eclip0_486_1148)" fill="#E52929"><path d="M39.805 18.862L38.47 17.53a.667.667 0 00-.471-.196h-2a.667.667 0 00-.667.667v3.333H34v-4.666a.667.667 0 00-.667-.667h-4.31l-2.466-3.703A.667.667 0 0026 12h-4v-1.333h4.667a.667.667 0 00.666-.667V7.333a.667.667 0 00-.666-.666H13.333a.667.667 0 00-.666.666V10c0 .368.298.667.666.667H18V12h-4a.667.667 0 00-.555.297L10.977 16H7.333a.667.667 0 00-.666.667v4H5.333v-4A.667.667 0 004.667 16H2a.667.667 0 00-.555.297l-1.333 2a.67.67 0 00-.112.37v2c0 .131.04.26.112.37l1.221 1.83v5.8c0 .368.299.666.667.666h2.667a.667.667 0 00.666-.666v-4h1.334v4c0 .368.298.666.666.666h3.644l2.466 3.704a.667.667 0 00.557.296h19.333a.667.667 0 00.667-.666v-6h1.333v4.666c0 .369.299.667.667.667h2c.177 0 .346-.07.471-.195l1.334-1.334a.667.667 0 00.195-.47V19.332a.667.667 0 00-.195-.47zM4 28H2.667v-5.333a.67.67 0 00-.112-.37l-1.222-1.83v-1.6l1.024-1.534H4V28zm2.667-4.667H5.333V22h1.334v1.333zm7.333-14V8h12v1.333H14zm6.667 1.334V12h-1.334v-1.333h1.334zM30 32H14.357l-2.467-3.703a.667.667 0 00-.557-.297H8V17.333h3.333a.667.667 0 00.555-.296l2.469-3.704h11.286l2.467 3.704a.667.667 0 00.557.296H30V32zm2.667 0h-1.334V17.333h1.334V32zm2.666-6.667H34v-2.666h1.333v2.666zm3.334 4.391l-.943.943h-1.057v-12h1.057l.943.942v10.115z"/><path d="M25.825 21.55a.667.667 0 00-.492-.217h-3.168l1.152-5.188a.667.667 0 00-1.101-.636l-8 7.333a.667.667 0 00.45 1.158h3.17l-1.153 5.189a.667.667 0 001.101.636l8-7.334a.667.667 0 00.04-.942zm-7.382 5.861l.874-3.933a.666.666 0 00-.65-.811H16.38l5.176-4.745-.874 3.933a.667.667 0 00.65.812h2.286l-5.176 4.744zM10.667 21.333H9.333v5.334h1.334v-5.334zM10.667 18.667H9.333V20h1.334v-1.333z"/></g><defs><clipPath id="eclip0_486_1148"><path fill="#fff" d="M0 0h40v40H0z"/></clipPath></defs></svg><svg fill="none" viewBox="0 0 40 40" id="oil" xmlns="http://www.w3.org/2000/svg"><g clip-path="url(#fclip0_486_1234)" fill="#E52929"><path d="M32.564 3.486L24.227.706a5.976 5.976 0 00-4.435.255l-7.125 3.326V.667A.667.667 0 0012 0H4a.667.667 0 00-.667.667v34.666A4.672 4.672 0 008 40h24a4.672 4.672 0 004.667-4.667V9.177a5.99 5.99 0 00-4.103-5.691zM4.667 1.333H6v1.334h1.333V1.333h1.334v1.334H10V1.333h1.334v3.334H4.667V1.333zm30.666 34A3.337 3.337 0 0132 38.667H8a3.337 3.337 0 01-3.333-3.334V6H12c.094 0 .186-.02.27-.06h.012l8.074-3.77a4.657 4.657 0 013.45-.2l8.336 2.78a4.66 4.66 0 013.191 4.427v26.156z"/><path d="M20.697 24.255l-3.538-7.862a.667.667 0 00-1.216 0l-3.538 7.862a4.546 4.546 0 108.292 0zM17.87 29.05a3.213 3.213 0 01-4.25-4.249l2.93-6.51 2.93 6.51a3.213 3.213 0 01-1.61 4.25zM30.887 7.29l-7.68-2.883a2.284 2.284 0 00-2.412.522l-.125.125a2.279 2.279 0 00.852 3.76l7.807 2.755c.245.087.504.132.764.133a2.28 2.28 0 00.794-4.413zm.096 2.453a.944.944 0 01-1.21.565l-7.807-2.753A.944.944 0 0121.613 6l.124-.125a.947.947 0 011-.216l7.682 2.874c.49.178.743.72.564 1.21zM31 17a2.333 2.333 0 00-2.333 2.333v11a2.333 2.333 0 104.667 0v-11A2.333 2.333 0 0031 17zm1 13.333a1 1 0 11-2 0v-11a1 1 0 012 0v11z"/><path d="M24.473 12.733l-5.578-2.028a.665.665 0 00-.228-.038h-8A3.337 3.337 0 007.334 14v18.667A3.337 3.337 0 0010.666 36h12.667a3.337 3.337 0 003.333-3.333v-16.8a3.341 3.341 0 00-2.194-3.134zm.86 19.934a2 2 0 01-2 2H10.668a2 2 0 01-2-2V14a2 2 0 012-2h7.882l5.468 1.988a2.007 2.007 0 011.317 1.879v16.8z"/></g><defs><clipPath id="fclip0_486_1234"><path fill="#fff" d="M0 0h40v40H0z"/></clipPath></defs></svg><svg fill="none" viewBox="0 0 40 40" id="pendant" xmlns="http://www.w3.org/2000/svg"><path d="M36.392 2.438l-.636 1.172 1.172.635.635-1.172-1.171-.635zM35.133 14.668l-8.176-2.16a.667.667 0 00-.34 1.288l8.176 2.16a.667.667 0 10.34-1.29zM36.47 12.267l-8.247-2.104a.667.667 0 00-.33 1.291l8.247 2.104a.667.667 0 00.33-1.291zM25.247 24.937h-1.333v1.333h1.333v-1.333z" fill="#E52929"/><path d="M39.964 2.847a3.333 3.333 0 10-6.326 1.876l-.645 1.18-.584-.318a.667.667 0 00-.904.267l-1.092 2.011-.958-.256a.667.667 0 00-.347 1.287l8.363 2.266a.667.667 0 10.348-1.287l-.794-.214.338-.624a.667.667 0 00-.267-.903l-.585-.318.642-1.184a3.333 3.333 0 002.81-3.783zM35.7 9.298l-3.968-1.076.622-1.147 3.516 1.908-.17.315zm.448-3.62l-.812 1.496-1.171-.633.812-1.498a.667.667 0 00-.017-.665 2 2 0 111.754.952.666.666 0 00-.566.348zM39.325 20.67h-3.999a.666.666 0 00-.666.667v2h-4.3l.914-1.684a.667.667 0 00-.266-.903l-1.172-.636 1.298-2.393 2.315.633a.667.667 0 10.351-1.286l-8.11-2.215a.666.666 0 00-.35 1.286l1.83.5-.85 1.566-1.172-.636a.667.667 0 00-.904.267l-1.271 2.343a.667.667 0 00.266.904l1.172.635-.324.6a3.272 3.272 0 00-1.93 1.02H17.33v-2a.666.666 0 00-.666-.667h-2v-5.332a3.337 3.337 0 00-3.333-3.333H3.333A3.337 3.337 0 000 15.34v21.328A3.337 3.337 0 003.333 40h7.998a3.337 3.337 0 003.333-3.333v-5.332h2a.666.666 0 00.666-.666v-2h5.981a3.242 3.242 0 002.55 0h8.799v2c0 .368.298.666.666.666h4a.667.667 0 00.666-.666v-9.332a.667.667 0 00-.667-.666zM2.667 38.545a2 2 0 01-1.333-1.877V15.34a2 2 0 011.333-1.877v25.082zm2.666.123H4V13.339h1.333v25.328zm2.666 0H6.666V13.339h1.333v25.328zm2.666 0H9.332V13.339h1.333v25.328zm2.666-2a2 2 0 01-1.333 1.877V13.462a2 2 0 011.333 1.877v21.328zm2.666-6.665h-1.333v-7.998h1.333v7.998zm1.333-2.666V24.67h4.052c-.053.184-.09.373-.109.564 0 .024-.006.048-.01.072a3.365 3.365 0 000 .568c0 .03.005.058.008.087a3.296 3.296 0 00.133.633c.055.177.124.35.207.515l.042.078c.027.05.05.101.08.15H17.33zM28.388 17.19l1.277.44-1.004 1.848-1.172-.636.899-1.652zm-3.29 1.87l4.687 2.544-.636 1.171-2.765-1.5-.75-.404-1.172-.639.636-1.171zm1.18 5.508a1.988 1.988 0 01-2.55 2.835 1.933 1.933 0 00-.1-.04 2 2 0 01-.803-2.71c.049-.086.104-.168.166-.246.228-.304.54-.536.896-.666a2.06 2.06 0 01.639-.123.667.667 0 00.566-.348l.494-.91 1.171.635-.496.909a.666.666 0 00.017.664zm5.716 2.768h-4.566c.028-.047.056-.094.082-.143.093-.174.17-.357.23-.546l.03-.097c.053-.179.09-.362.11-.547l.01-.11c.017-.19.017-.38 0-.57 0-.017-.005-.032-.006-.05a3.382 3.382 0 00-.105-.542c-.005-.019-.006-.04-.011-.059h4.226v2.664zm2.666 0h-1.333V24.67h1.333v2.666zm3.999 2.666h-2.666v-7.998h2.666v7.998z" fill="#E52929"/></svg><svg fill="none" viewBox="0 0 26 26" id="phone" xmlns="http://www.w3.org/2000/svg"><path d="M24.962 21.413c0 .45-.1.912-.312 1.362-.213.45-.488.875-.85 1.275-.613.675-1.288 1.163-2.05 1.475a6.277 6.277 0 01-2.438.475c-1.275 0-2.637-.3-4.075-.912-1.437-.613-2.875-1.438-4.3-2.475a35.94 35.94 0 01-4.1-3.5 35.517 35.517 0 01-3.487-4.088C2.325 13.6 1.5 12.175.9 10.763.3 9.338 0 7.975 0 6.675c0-.85.15-1.662.45-2.412.3-.763.775-1.463 1.437-2.088C2.687 1.388 3.562 1 4.487 1c.35 0 .7.075 1.013.225.325.15.612.375.837.7l2.9 4.088c.225.312.388.6.5.875.113.262.175.525.175.762 0 .3-.087.6-.262.888-.163.287-.4.587-.7.887l-.95.988c-.138.137-.2.3-.2.5 0 .1.012.187.037.287.038.1.075.175.1.25.225.413.613.95 1.163 1.6.562.65 1.162 1.313 1.812 1.975a37.601 37.601 0 001.988 1.838c.65.55 1.187.925 1.612 1.15.063.025.138.062.225.1.1.037.2.05.313.05a.688.688 0 00.512-.213l.95-.937c.313-.313.613-.55.9-.7.288-.175.575-.263.888-.263.237 0 .487.05.762.163.275.112.563.275.875.487l4.138 2.938c.325.225.55.487.687.8.125.312.2.625.2.975z" fill="#E52929"/><path d="M20.625 9.75c0-.75-.588-1.9-1.463-2.837-.8-.862-1.862-1.537-2.912-1.537M25 9.75A8.744 8.744 0 0016.25 1" stroke="#E52929" stroke-width="1.2" stroke-linecap="round" stroke-linejoin="round"/></svg><svg fill="none" viewBox="0 0 18 18" id="telegram" xmlns="http://www.w3.org/2000/svg"><rect width="18" height="18" rx="3" fill="#2F89CE"/><path d="M4.208 9.168l2.069.772.806 2.595c.035.175.246.21.386.105l1.158-.947c.105-.105.28-.105.42 0l2.07 1.508c.14.106.35.035.385-.14l1.543-7.365c.035-.175-.14-.35-.315-.28L4.208 8.712c-.21.07-.21.386 0 .456zm2.77.386l4.068-2.49c.07-.035.14.07.07.105l-3.331 3.122c-.105.105-.21.245-.21.42l-.106.842c0 .105-.175.14-.21 0l-.421-1.543c-.105-.175-.035-.386.14-.456z" fill="#fff"/></svg><svg fill="none" viewBox="0 0 18 18" id="whatsapp" xmlns="http://www.w3.org/2000/svg"><rect width="18" height="18" rx="3" fill="#48C95F"/><path d="M12.567 5.428A4.692 4.692 0 009.24 4.05a4.7 4.7 0 00-4.708 4.692c0 .82.23 1.64.625 2.33L4.5 13.5l2.502-.656a4.813 4.813 0 002.24.558 4.7 4.7 0 004.708-4.693c-.033-1.214-.494-2.395-1.383-3.28zm-1.054 4.988c-.098.262-.56.525-.79.557-.198.033-.46.033-.724-.032-.165-.066-.395-.132-.659-.263-1.185-.492-1.943-1.673-2.008-1.772-.066-.065-.494-.623-.494-1.214 0-.59.296-.853.395-.984.099-.131.23-.131.33-.131h.23c.065 0 .164-.033.263.196.099.23.33.82.362.854a.209.209 0 010 .196c-.033.066-.066.132-.132.197-.065.066-.131.164-.164.197-.066.066-.132.131-.066.23.066.131.296.492.659.82.46.394.823.525.954.59.132.066.198.034.264-.032s.296-.328.362-.46c.066-.13.165-.098.263-.065.1.033.692.328.79.394.132.065.198.098.231.131.033.098.033.328-.066.59z" fill="#fff"/></svg></svg>