<svg width="18" height="18" viewBox="0 0 18 18" fill="none" xmlns="http://www.w3.org/2000/svg">
<path d="M17.3084 14.2751C17.3084 14.5751 17.2418 14.8834 17.1001 15.1834C16.9584 15.4834 16.7751 15.7667 16.5334 16.0334C16.1251 16.4834 15.6751 16.8084 15.1668 17.0167C14.6668 17.2251 14.1251 17.3334 13.5418 17.3334C12.6918 17.3334 11.7834 17.1334 10.8251 16.7251C9.86675 16.3167 8.90842 15.7667 7.95842 15.0751C7.00008 14.3751 6.09175 13.6001 5.22508 12.7417C4.36675 11.8751 3.59175 10.9667 2.90008 10.0167C2.21675 9.06675 1.66675 8.11675 1.26675 7.17508C0.866748 6.22508 0.666748 5.31675 0.666748 4.45008C0.666748 3.88341 0.766748 3.34175 0.966748 2.84175C1.16675 2.33341 1.48341 1.86675 1.92508 1.45008C2.45842 0.925081 3.04175 0.666748 3.65842 0.666748C3.89175 0.666748 4.12508 0.716748 4.33342 0.816748C4.55008 0.916748 4.74175 1.06675 4.89175 1.28341L6.82508 4.00842C6.97508 4.21675 7.08342 4.40841 7.15842 4.59175C7.23342 4.76675 7.27508 4.94175 7.27508 5.10008C7.27508 5.30008 7.21675 5.50008 7.10008 5.69175C6.99175 5.88341 6.83342 6.08341 6.63342 6.28341L6.00008 6.94175C5.90842 7.03341 5.86675 7.14175 5.86675 7.27508C5.86675 7.34175 5.87508 7.40008 5.89175 7.46675C5.91675 7.53341 5.94175 7.58341 5.95842 7.63341C6.10842 7.90841 6.36675 8.26675 6.73342 8.70008C7.10842 9.13342 7.50842 9.57508 7.94175 10.0167C8.39175 10.4584 8.82508 10.8667 9.26675 11.2417C9.70008 11.6084 10.0584 11.8584 10.3418 12.0084C10.3834 12.0251 10.4334 12.0501 10.4918 12.0751C10.5584 12.1001 10.6251 12.1084 10.7001 12.1084C10.8418 12.1084 10.9501 12.0584 11.0418 11.9667L11.6751 11.3417C11.8834 11.1334 12.0834 10.9751 12.2751 10.8751C12.4668 10.7584 12.6584 10.7001 12.8668 10.7001C13.0251 10.7001 13.1918 10.7334 13.3751 10.8084C13.5584 10.8834 13.7501 10.9917 13.9584 11.1334L16.7168 13.0917C16.9334 13.2417 17.0834 13.4167 17.1751 13.6251C17.2584 13.8334 17.3084 14.0417 17.3084 14.2751Z" fill="#929DA3"/>
</svg>
