<svg width="40" height="40" viewBox="0 0 40 40" fill="none" xmlns="http://www.w3.org/2000/svg">
<g clip-path="url(#clip0_486_25)">
<path d="M21.8182 13.0909C17.0004 13.0961 13.0961 17.0004 13.0909 21.8182C13.0909 26.6381 16.9983 30.5455 21.8182 30.5455C26.6381 30.5455 30.5455 26.6381 30.5455 21.8182C30.5455 16.9983 26.6381 13.0909 21.8182 13.0909ZM21.8182 29.0909C17.8015 29.0909 14.5455 25.8348 14.5455 21.8182C14.5499 17.8034 17.8034 14.5498 21.8182 14.5455C25.8348 14.5455 29.0909 17.8016 29.0909 21.8182C29.0909 25.8348 25.8348 29.0909 21.8182 29.0909Z" fill="#E52929"/>
<path d="M21.8182 18.9091C20.2115 18.9091 18.9091 20.2115 18.9091 21.8182C18.9091 23.4248 20.2115 24.7273 21.8182 24.7273C23.4248 24.7273 24.7273 23.4248 24.7273 21.8182C24.7273 20.2115 23.4248 18.9091 21.8182 18.9091ZM21.8182 23.2727C21.0148 23.2727 20.3636 22.6215 20.3636 21.8182C20.3636 21.0148 21.0148 20.3636 21.8182 20.3636C22.6215 20.3636 23.2727 21.0148 23.2727 21.8182C23.2727 22.6215 22.6215 23.2727 21.8182 23.2727Z" fill="#E52929"/>
<path d="M22.5455 16H21.0909V17.4546H22.5455V16Z" fill="#E52929"/>
<path d="M22.5455 26.1818H21.0909V27.6364H22.5455V26.1818Z" fill="#E52929"/>
<path d="M18.1818 18.9091H16.7273V20.3636H18.1818V18.9091Z" fill="#E52929"/>
<path d="M26.9091 18.9091H25.4545V20.3636H26.9091V18.9091Z" fill="#E52929"/>
<path d="M18.1818 23.2727H16.7273V24.7273H18.1818V23.2727Z" fill="#E52929"/>
<path d="M26.9091 23.2727H25.4545V24.7273H26.9091V23.2727Z" fill="#E52929"/>
<path d="M28.3636 12.3636H26.9091V13.8182H28.3636V12.3636Z" fill="#E52929"/>
<path d="M26.9091 9.45455H25.4545V10.9091H26.9091V9.45455Z" fill="#E52929"/>
<path d="M25.4545 6.54546H24V8.00001H25.4545V6.54546Z" fill="#E52929"/>
<path d="M16.7273 29.8182H15.2727V31.2727H16.7273V29.8182Z" fill="#E52929"/>
<path d="M18.1818 32.7273H16.7273V34.1818H18.1818V32.7273Z" fill="#E52929"/>
<path d="M19.6364 35.6364H18.1818V37.0909H19.6364V35.6364Z" fill="#E52929"/>
<path d="M13.8182 15.2727H12.3636V16.7273H13.8182V15.2727Z" fill="#E52929"/>
<path d="M31.2727 26.9091H29.8182V28.3636H31.2727V26.9091Z" fill="#E52929"/>
<path d="M34.1818 25.4545H32.7273V26.9091H34.1818V25.4545Z" fill="#E52929"/>
<path d="M37.0909 24H35.6364V25.4545H37.0909V24Z" fill="#E52929"/>
<path d="M19.7605 10.5055L18.732 11.534L19.7605 12.5625L20.789 11.534L19.7605 10.5055Z" fill="#E52929"/>
<path d="M23.874 31.0724L22.8455 32.101L23.874 33.1295L24.9025 32.101L23.874 31.0724Z" fill="#E52929"/>
<path d="M26.9618 32.1025L25.9332 33.1309L26.9615 34.1595L27.9902 33.1312L26.9618 32.1025Z" fill="#E52929"/>
<path d="M30.0446 33.1336L29.0161 34.1621L30.0446 35.1906L31.0731 34.1621L30.0446 33.1336Z" fill="#E52929"/>
<path d="M11.5322 22.8466L10.5037 23.8751L11.5322 24.9037L12.5607 23.8752L11.5322 22.8466Z" fill="#E52929"/>
<path d="M10.5036 25.9312L9.47506 26.9597L10.5036 27.9883L11.5321 26.9597L10.5036 25.9312Z" fill="#E52929"/>
<path d="M9.47083 29.0159L8.44232 30.0444L9.47083 31.0729L10.4993 30.0444L9.47083 29.0159Z" fill="#E52929"/>
<path d="M32.1011 18.7319L31.0726 19.7604L32.1011 20.7889L33.1296 19.7604L32.1011 18.7319Z" fill="#E52929"/>
<path d="M33.1325 15.6469L32.104 16.6755L33.1325 17.704L34.161 16.6755L33.1325 15.6469Z" fill="#E52929"/>
<path d="M34.1605 12.561L33.132 13.5895L34.1605 14.618L35.189 13.5895L34.1605 12.561Z" fill="#E52929"/>
<path d="M21.8182 3.63636V2.18182C21.8182 0.976819 20.8414 4.90542e-07 19.6364 4.90542e-07H15.2727C15.1946 -9.04186e-05 15.117 0.012455 15.0429 0.0370914C7.96773 2.41391 2.41427 7.96764 0.0378182 15.0429C0.0129091 15.117 0.000181818 15.1945 0 15.2727V19.6364C0 20.8414 0.976818 21.8182 2.18182 21.8182H3.63636C3.63636 31.8597 11.7766 40 21.8182 40C31.8597 40 40 31.8597 40 21.8182C40 11.7766 31.8597 3.63636 21.8182 3.63636ZM2.18182 20.3636C1.78018 20.3636 1.45455 20.038 1.45455 19.6364V15.392C3.694 8.84018 8.84018 3.694 15.392 1.45455H19.6364C20.038 1.45455 20.3636 1.78018 20.3636 2.18182V7.37091C13.6997 8.47736 8.47736 13.6997 7.37091 20.3636H2.18182ZM21.8182 38.5455C12.58 38.5455 5.09091 31.0564 5.09091 21.8182H8C8.36673 21.8181 8.676 21.545 8.72145 21.1811C8.85463 20.1446 9.10045 19.1257 9.45454 18.1425V18.1818H10.9091V16.7273H10.0364C11.2763 14.1576 13.2541 12.0161 15.7171 10.576L16.6742 11.5331L17.7025 10.5047L17.0793 9.88146C18.3811 9.29246 19.7636 8.90146 21.1811 8.72146C21.545 8.676 21.8181 8.36673 21.8182 8V5.09091C31.0564 5.09091 38.5454 12.58 38.5454 21.8182C38.5454 31.0564 31.0564 38.5455 21.8182 38.5455Z" fill="#E52929"/>
<path d="M16 2.9091H14.5455V4.36364H16V2.9091Z" fill="#E52929"/>
<path d="M3.63636 16H2.18182V17.4546H3.63636V16Z" fill="#E52929"/>
<path d="M8.72727 7.27273H7.27273V8.72728H8.72727V7.27273Z" fill="#E52929"/>
</g>
<defs>
<clipPath id="clip0_486_25">
<rect width="40" height="40" fill="white"/>
</clipPath>
</defs>
</svg>
