<svg width="40" height="40" viewBox="0 0 40 40" fill="none" xmlns="http://www.w3.org/2000/svg">
<g clip-path="url(#clip0_486_1156)">
<path d="M36.6665 12H3.33317C2.965 12 2.6665 12.2985 2.6665 12.6667V33.3333C2.6665 33.7015 2.965 34 3.33317 34H36.6665C37.0347 34 37.3332 33.7015 37.3332 33.3333V12.6667C37.3332 12.2985 37.0347 12 36.6665 12ZM35.9998 32.6667H3.99984V13.3333H35.9998V32.6667Z" fill="#E52929"/>
<path d="M7.33333 14.6667H6V31.3334H7.33333V14.6667Z" fill="#E52929"/>
<path d="M9.99984 14.6667H8.6665V31.3334H9.99984V14.6667Z" fill="#E52929"/>
<path d="M12.6668 14.6667H11.3335V31.3334H12.6668V14.6667Z" fill="#E52929"/>
<path d="M15.3333 14.6667H14V31.3334H15.3333V14.6667Z" fill="#E52929"/>
<path d="M17.9998 14.6667H16.6665V31.3334H17.9998V14.6667Z" fill="#E52929"/>
<path d="M20.6668 14.6667H19.3335V31.3334H20.6668V14.6667Z" fill="#E52929"/>
<path d="M23.3333 14.6667H22V31.3334H23.3333V14.6667Z" fill="#E52929"/>
<path d="M25.9998 14.6667H24.6665V31.3334H25.9998V14.6667Z" fill="#E52929"/>
<path d="M28.6668 14.6667H27.3335V31.3334H28.6668V14.6667Z" fill="#E52929"/>
<path d="M31.3333 14.6667H30V31.3334H31.3333V14.6667Z" fill="#E52929"/>
<path d="M33.9998 14.6667H32.6665V31.3334H33.9998V14.6667Z" fill="#E52929"/>
<path d="M35.3333 6.00008H33.7093C32.9836 4.31983 31.0332 3.54608 29.3529 4.27183C28.5777 4.60666 27.9595 5.22483 27.6247 6.00008H24V4.66675H25.3333C25.7015 4.66675 26 4.36825 26 4.00008V1.33341C26 0.965248 25.7015 0.666748 25.3333 0.666748H14.6667C14.2985 0.666748 14 0.965248 14 1.33341V4.00008C14 4.36825 14.2985 4.66675 14.6667 4.66675H16V6.00008H10.6667V5.33341C10.6667 4.96525 10.3682 4.66675 10 4.66675H7.33333C6.96516 4.66675 6.66666 4.96525 6.66666 5.33341V6.00008H4.66667C2.09058 6.003 0.00291667 8.09066 0 10.6667V34.6667C0.00291667 37.2428 2.09058 39.3305 4.66667 39.3334H35.3333C37.9094 39.3305 39.9971 37.2428 40 34.6667V10.6667C39.9971 8.09066 37.9094 6.003 35.3333 6.00008ZM28.7393 6.83408C29.0325 5.78708 30.1189 5.176 31.1659 5.46916C32.2129 5.76233 32.824 6.84875 32.5308 7.89575C32.2377 8.94275 31.1512 9.55383 30.1042 9.26066C29.2428 9.0195 28.6523 8.22783 28.6667 7.33341C28.6697 7.16458 28.6941 6.99675 28.7393 6.83408ZM15.3333 3.33341V2.00008H24.6667V3.33341H15.3333ZM22.6667 4.66675V6.00008H17.3333V4.66675H22.6667ZM38.6667 34.6667C38.6645 36.5067 37.1733 37.9979 35.3333 38.0001H4.66667C2.82667 37.9979 1.3355 36.5067 1.33333 34.6667V10.6667C1.3355 8.82675 2.82667 7.33558 4.66667 7.33341H7.33333C7.7015 7.33341 8 7.03491 8 6.66675V6.00008H9.33333V6.66675C9.33333 7.03491 9.63183 7.33341 10 7.33341H27.3333C27.3333 9.17433 28.8257 10.6667 30.6667 10.6667C32.5076 10.6667 34 9.17433 34 7.33341H35.3333C37.1733 7.33558 38.6645 8.82675 38.6667 10.6667V34.6667Z" fill="#E52929"/>
<path d="M5.99984 35.3335H4.6665V36.6668H5.99984V35.3335Z" fill="#E52929"/>
<path d="M5.99984 9.3335H4.6665V10.6668H5.99984V9.3335Z" fill="#E52929"/>
<path d="M35.3333 35.3335H34V36.6668H35.3333V35.3335Z" fill="#E52929"/>
</g>
<defs>
<clipPath id="clip0_486_1156">
<rect width="40" height="40" fill="white"/>
</clipPath>
</defs>
</svg>
