<svg width="40" height="40" viewBox="0 0 40 40" fill="none" xmlns="http://www.w3.org/2000/svg">
<g clip-path="url(#clip0_486_1148)">
<path d="M39.8047 18.8621L38.4713 17.5287C38.3463 17.4037 38.1768 17.3334 38 17.3334H36C35.6318 17.3334 35.3333 17.6319 35.3333 18.0001V21.3334H34V16.6667C34 16.2986 33.7015 16.0001 33.3333 16.0001H29.0233L26.5567 12.2967C26.4326 12.1107 26.2236 11.9994 26 12.0001H22V10.6667H26.6667C27.0348 10.6667 27.3333 10.3682 27.3333 10.0001V7.33341C27.3333 6.96525 27.0348 6.66675 26.6667 6.66675H13.3333C12.9652 6.66675 12.6667 6.96525 12.6667 7.33341V10.0001C12.6667 10.3682 12.9652 10.6667 13.3333 10.6667H18V12.0001H14C13.7772 12.0001 13.569 12.1113 13.4453 12.2967L10.9767 16.0001H7.33333C6.96517 16.0001 6.66667 16.2986 6.66667 16.6667V20.6668H5.33333V16.6667C5.33333 16.2986 5.03483 16.0001 4.66667 16.0001H2C1.77717 16.0001 1.569 16.1113 1.44533 16.2968L0.112 18.2968C0.0391667 18.4064 0.00025 18.5351 0 18.6668V20.6668C0.00025 20.7984 0.0391667 20.9271 0.112 21.0368L1.33333 22.8668V28.6668C1.33333 29.0349 1.63183 29.3334 2 29.3334H4.66667C5.03483 29.3334 5.33333 29.0349 5.33333 28.6668V24.6668H6.66667V28.6668C6.66667 29.0349 6.96517 29.3334 7.33333 29.3334H10.9767L13.4433 33.0368C13.5674 33.2228 13.7764 33.3341 14 33.3334H33.3333C33.7015 33.3334 34 33.0349 34 32.6668V26.6668H35.3333V31.3334C35.3333 31.7016 35.6318 32.0001 36 32.0001H38C38.1768 32.0001 38.3463 31.9298 38.4713 31.8048L39.8047 30.4714C39.9297 30.3464 40 30.1769 40 30.0001V19.3334C40 19.1566 39.9297 18.9871 39.8047 18.8621ZM4 28.0001H2.66667V22.6668C2.66642 22.5351 2.6275 22.4064 2.55467 22.2968L1.33333 20.4668V18.8667L2.35667 17.3334H4V28.0001ZM6.66667 23.3334H5.33333V22.0001H6.66667V23.3334ZM14 9.33342V8.00008H26V9.33342H14ZM20.6667 10.6667V12.0001H19.3333V10.6667H20.6667ZM30 32.0001H14.3567L11.89 28.2968C11.7659 28.1108 11.5569 27.9994 11.3333 28.0001H8V17.3334H11.3333C11.5562 17.3334 11.7643 17.2222 11.888 17.0368L14.3567 13.3334H25.6433L28.11 17.0368C28.2341 17.2228 28.4431 17.3341 28.6667 17.3334H30V32.0001ZM32.6667 32.0001H31.3333V17.3334H32.6667V32.0001ZM35.3333 25.3334H34V22.6668H35.3333V25.3334ZM38.6667 29.7241L37.724 30.6668H36.6667V18.6668H37.724L38.6667 19.6094V29.7241Z" fill="#E52929"/>
<path d="M25.8248 21.5495C25.6984 21.4117 25.5202 21.3334 25.3333 21.3334H22.1647L23.3173 16.1447C23.3972 15.7853 23.1706 15.4292 22.8112 15.3493C22.5987 15.3021 22.3765 15.3616 22.216 15.5087L14.216 22.8421C13.9447 23.0909 13.9264 23.5127 14.1753 23.784C14.3016 23.9217 14.4798 24.0001 14.6667 24.0001H17.8353L16.6827 29.1887C16.6028 29.5482 16.8294 29.9042 17.1888 29.9842C17.4013 30.0314 17.6235 29.9719 17.784 29.8247L25.784 22.4914C26.0553 22.2426 26.0736 21.8208 25.8248 21.5495ZM18.4433 27.4114L19.3173 23.4781C19.3973 23.1187 19.1707 22.7625 18.8113 22.6827C18.7638 22.6721 18.7153 22.6667 18.6667 22.6667H16.3807L21.5567 17.9221L20.6827 21.8554C20.6028 22.2148 20.8293 22.571 21.1888 22.6508C21.2363 22.6614 21.2847 22.6667 21.3333 22.6667H23.6193L18.4433 27.4114Z" fill="#E52929"/>
<path d="M10.6667 21.3334H9.33333V26.6667H10.6667V21.3334Z" fill="#E52929"/>
<path d="M10.6667 18.6667H9.33333V20.0001H10.6667V18.6667Z" fill="#E52929"/>
</g>
<defs>
<clipPath id="clip0_486_1148">
<rect width="40" height="40" fill="white"/>
</clipPath>
</defs>
</svg>
