<svg width="26" height="28" viewBox="0 0 26 28" fill="none" xmlns="http://www.w3.org/2000/svg">
<path fill-rule="evenodd" clip-rule="evenodd" d="M12.7615 2.1875C10.4351 2.18889 8.20427 3.20344 6.55929 5.00823C4.9143 6.81302 3.9897 9.26041 3.98865 11.8127C4.1528 13.7724 4.77801 15.6517 5.80306 17.2667C7.58319 20.2149 9.63548 22.954 11.9274 25.4406C12.1507 25.6791 12.4499 25.8125 12.7615 25.8125C13.0731 25.8125 13.3724 25.6791 13.5956 25.4406C15.8876 22.954 17.9399 20.2149 19.72 17.2668C20.7451 15.6517 21.3703 13.7724 21.5344 11.8127C21.5334 9.26045 20.6088 6.81305 18.9638 5.00826C17.3188 3.20346 15.088 2.1889 12.7615 2.1875ZM12.7615 7.4375C12.0517 7.43744 11.3577 7.66832 10.7674 8.10093C10.1772 8.53355 9.7171 9.14847 9.4454 9.86794C9.1737 10.5874 9.10257 11.3791 9.24102 12.1429C9.37947 12.9067 9.72127 13.6084 10.2232 14.1591C10.7251 14.7098 11.3646 15.0848 12.0609 15.2368C12.7571 15.3888 13.4788 15.3108 14.1346 15.0129C14.7905 14.7149 15.3511 14.2102 15.7455 13.5627C16.1399 12.9152 16.3504 12.1539 16.3505 11.3752C16.35 10.3311 15.9717 9.32989 15.2988 8.59156C14.6259 7.85323 13.7133 7.43815 12.7615 7.4375Z" fill="#E52929"/>
</svg>
