<svg width="40" height="40" viewBox="0 0 40 40" fill="none" xmlns="http://www.w3.org/2000/svg">
<g clip-path="url(#clip0_486_1234)">
<path d="M32.5642 3.486L24.2275 0.706666C22.7713 0.21825 21.183 0.309167 19.7922 0.960666L12.6668 4.28666V0.666666C12.6668 0.2985 12.3683 0 12.0002 0H4.00016C3.632 0 3.3335 0.2985 3.3335 0.666666V35.3333C3.33641 37.9094 5.42408 39.9971 8.00016 40H32.0002C34.5763 39.9971 36.6639 37.9094 36.6668 35.3333V9.17733C36.6694 6.59408 35.0158 4.30017 32.5642 3.486ZM4.66683 1.33333H6.00016V2.66667H7.3335V1.33333H8.66683V2.66667H10.0002V1.33333H11.3335V4.66666H4.66683V1.33333ZM35.3335 35.3333C35.3313 37.1733 33.8402 38.6645 32.0002 38.6666H8.00016C6.16016 38.6645 4.669 37.1733 4.66683 35.3333V6H12.0002C12.0937 5.99958 12.1859 5.97908 12.2708 5.94C12.2748 5.94 12.2788 5.94 12.2822 5.94L20.3562 2.16933C21.4377 1.66283 22.6726 1.59125 23.8055 1.96933L32.1422 4.75C34.0492 5.3835 35.3353 7.16791 35.3335 9.17733V35.3333Z" fill="#E52929"/>
<path d="M20.6968 24.2553L17.1588 16.3934C17.0078 16.0576 16.6132 15.9078 16.2773 16.0589C16.1287 16.1257 16.0097 16.2448 15.9428 16.3934L12.4049 24.2553C11.3747 26.5449 12.3956 29.2362 14.6852 30.2663C15.2718 30.5303 15.9076 30.6667 16.5508 30.6667C19.0615 30.6668 21.097 28.6317 21.0972 26.121C21.0972 25.4778 20.9608 24.8419 20.6968 24.2553ZM17.8702 29.0493C16.252 29.778 14.3495 29.0568 13.6208 27.4387C13.2431 26.5997 13.2431 25.639 13.6208 24.8L16.5508 18.2894L19.4808 24.8C20.2095 26.4182 19.4883 28.3207 17.8702 29.0493Z" fill="#E52929"/>
<path d="M30.8874 7.28931L23.2061 4.40664C22.3692 4.09439 21.4272 4.29855 20.7947 4.9293L20.6701 5.05397C19.7803 5.94397 19.7806 7.38681 20.6707 8.27647C20.9109 8.51664 21.2018 8.70006 21.5221 8.81331L29.3294 11.5686C29.5745 11.6558 29.8326 11.7009 30.0927 11.702C31.3516 11.6976 32.3685 10.6736 32.3641 9.41472C32.3608 8.46839 31.7732 7.62256 30.8874 7.28931ZM30.9834 9.74331C30.8052 10.2334 30.2635 10.4861 29.7734 10.308L21.9661 7.55531C21.4747 7.38081 21.2179 6.84114 21.3924 6.3498C21.4391 6.2183 21.5143 6.09889 21.6127 5.99997L21.7374 5.8753C21.9997 5.61364 22.3904 5.52897 22.7374 5.65864L30.4187 8.53331C30.9088 8.71147 31.1616 9.25322 30.9834 9.74331Z" fill="#E52929"/>
<path d="M31.0003 17C29.7117 17 28.667 18.0447 28.667 19.3333V30.3333C28.667 31.622 29.7117 32.6667 31.0003 32.6667C32.289 32.6667 33.3337 31.622 33.3337 30.3333V19.3333C33.3337 18.0447 32.289 17 31.0003 17ZM32.0003 30.3333C32.0003 30.8856 31.5526 31.3333 31.0003 31.3333C30.4481 31.3333 30.0003 30.8856 30.0003 30.3333V19.3333C30.0003 18.7811 30.4481 18.3333 31.0003 18.3333C31.5526 18.3333 32.0003 18.7811 32.0003 19.3333V30.3333Z" fill="#E52929"/>
<path d="M24.4728 12.7334L18.8948 10.7048C18.8216 10.6789 18.7445 10.6661 18.6668 10.6668H10.6668C8.82683 10.6689 7.33566 12.1601 7.3335 14.0001V32.6668C7.33566 34.5068 8.82683 35.9979 10.6668 36.0001H23.3335C25.1735 35.9979 26.6647 34.5068 26.6668 32.6668V15.8668C26.6648 14.4656 25.7888 13.2145 24.4728 12.7334ZM25.3335 32.6668C25.3335 33.7713 24.4381 34.6668 23.3335 34.6668H10.6668C9.56225 34.6668 8.66683 33.7713 8.66683 32.6668V14.0001C8.66683 12.8955 9.56225 12.0001 10.6668 12.0001H18.5495L24.0175 13.9881C24.8061 14.2772 25.3312 15.0269 25.3335 15.8668V32.6668Z" fill="#E52929"/>
</g>
<defs>
<clipPath id="clip0_486_1234">
<rect width="40" height="40" fill="white"/>
</clipPath>
</defs>
</svg>
