<svg width="40" height="40" viewBox="0 0 40 40" fill="none" xmlns="http://www.w3.org/2000/svg">
<path d="M36.3916 2.43776L35.7561 3.60964L36.928 4.2451L37.5634 3.07322L36.3916 2.43776Z" fill="#E52929"/>
<path d="M35.1335 14.6675L26.9566 12.5073C26.6007 12.4134 26.236 12.6259 26.1421 12.9818C26.0482 13.3377 26.2607 13.7025 26.6166 13.7964L34.7929 15.9566C34.8486 15.971 34.9059 15.9784 34.9635 15.9786C35.3316 15.9786 35.6301 15.6803 35.6302 15.3122C35.6302 15.0094 35.4262 14.7447 35.1335 14.6675Z" fill="#E52929"/>
<path d="M36.4692 12.2674L28.223 10.1625C27.8663 10.0716 27.5034 10.2871 27.4125 10.6437C27.3216 11.0004 27.5371 11.3633 27.8937 11.4542L36.1399 13.5584C36.1937 13.5724 36.249 13.5793 36.3046 13.5791C36.6726 13.5777 36.9699 13.2781 36.9685 12.91C36.9672 12.6072 36.7622 12.3433 36.4692 12.2674Z" fill="#E52929"/>
<path d="M25.247 24.9366H23.9139V26.2696H25.247V24.9366Z" fill="#E52929"/>
<path d="M39.9636 2.84668C39.695 1.02582 38.0012 -0.232484 36.1803 0.0361244C34.3595 0.304732 33.1012 1.99853 33.3698 3.81938C33.4159 4.13181 33.5061 4.43608 33.6378 4.72302L32.9933 5.90343L32.4087 5.58549C32.0856 5.4097 31.681 5.52901 31.5049 5.8521L30.4132 7.863L29.4554 7.60705C29.1 7.51099 28.734 7.72119 28.6379 8.07662C28.5418 8.43204 28.752 8.79804 29.1075 8.8941L37.471 11.1603C37.5276 11.1759 37.5862 11.1837 37.6449 11.1836C38.013 11.1845 38.3122 10.8868 38.3131 10.5188C38.3139 10.2164 38.111 9.95137 37.8189 9.87322L37.0251 9.6586L37.363 9.03541C37.5388 8.71223 37.4195 8.30765 37.0964 8.13161L36.5105 7.81367L37.153 6.62993C38.9738 6.36133 40.2322 4.66753 39.9636 2.84668ZM35.7007 9.29802L31.7329 8.22225L32.3554 7.07517L35.8713 8.98342L35.7007 9.29802ZM36.1493 5.67814L35.3374 7.17448L34.1657 6.54062L34.9782 5.04295C35.0913 4.83424 35.085 4.58113 34.9615 4.37843C34.3828 3.43788 34.6762 2.20623 35.6168 1.62761C36.5573 1.0489 37.789 1.34234 38.3676 2.28288C38.9463 3.22343 38.653 4.45508 37.7123 5.0337C37.4118 5.21858 37.0678 5.32064 36.7151 5.32955C36.4779 5.33672 36.2623 5.46952 36.1493 5.67814Z" fill="#E52929"/>
<path d="M39.3252 20.6709H35.3261C34.958 20.6709 34.6596 20.9693 34.6596 21.3374V23.3369H30.3605L31.2743 21.6533C31.4501 21.3301 31.3308 20.9256 31.0077 20.7495L29.836 20.1137L31.1337 17.7215L33.4492 18.354C33.8044 18.451 34.171 18.2417 34.268 17.8865C34.365 17.5312 34.1557 17.1646 33.8004 17.0676L25.6909 14.8528C25.3341 14.762 24.9714 14.9776 24.8806 15.3344C24.792 15.6823 24.9949 16.0379 25.3396 16.1385L27.1699 16.6391L26.3194 18.2047L25.1477 17.5689C24.8246 17.3935 24.4206 17.5128 24.2445 17.8355L22.9728 20.179C22.797 20.5021 22.9163 20.9067 23.2394 21.0828L24.4112 21.718L24.0872 22.3178C23.8629 22.3509 23.6424 22.4067 23.4294 22.4845C22.944 22.664 22.5082 22.9562 22.1576 23.3369H17.33V21.3374C17.33 20.9693 17.0316 20.6709 16.6635 20.6709H14.664V15.3387C14.6618 13.4991 13.1709 12.0083 11.3313 12.0061H3.33309C1.4935 12.0083 0.00265447 13.4991 0.000488281 15.3387V36.6674C0.00265447 38.507 1.4935 39.9978 3.33309 40H11.3313C13.1709 39.9978 14.6618 38.507 14.664 36.6674V31.3352H16.6635C17.0316 31.3352 17.33 31.0368 17.33 30.6687V28.6691H23.3114C24.1257 29.0174 25.0472 29.0174 25.8615 28.6691H34.6596V30.6687C34.6596 31.0368 34.958 31.3352 35.3261 31.3352H39.3252C39.6933 31.3352 39.9918 31.0368 39.9918 30.6687V21.3374C39.9918 20.9693 39.6933 20.6709 39.3252 20.6709ZM2.66657 38.5443C1.8705 38.2628 1.33703 37.5117 1.33353 36.6674V15.3387C1.33703 14.4944 1.8705 13.7432 2.66657 13.4618V38.5443ZM5.33266 38.6669H3.99962V13.3391H5.33266V38.6669ZM7.99874 38.6669H6.6657V13.3391H7.99874V38.6669ZM10.6648 38.6669H9.33178V13.3391H10.6648V38.6669ZM13.3309 36.6674C13.3274 37.5117 12.7939 38.2628 11.9979 38.5443V13.4618C12.7939 13.7432 13.3274 14.4944 13.3309 15.3387V36.6674ZM15.997 30.0022H14.664V22.0039H15.997V30.0022ZM17.33 27.3361V24.67H21.3818C21.329 24.8544 21.2926 25.0431 21.2732 25.2339C21.2732 25.2579 21.2665 25.2819 21.2638 25.3058C21.2478 25.4948 21.2478 25.6848 21.2638 25.8737C21.2638 25.9031 21.2678 25.9317 21.2712 25.961C21.2913 26.1454 21.327 26.3279 21.3778 26.5063C21.3858 26.5356 21.3945 26.5649 21.4038 26.5942C21.4585 26.7714 21.5279 26.9437 21.6111 27.1095C21.6244 27.1354 21.6391 27.1608 21.6531 27.1874C21.6798 27.2368 21.7037 27.2881 21.7331 27.3361H17.33ZM28.3876 17.1903L29.6647 17.6302L28.6609 19.4778L27.4892 18.8419L28.3876 17.1903ZM25.0977 19.0605L29.7847 21.604L29.1488 22.7751L26.3841 21.2754L25.6342 20.8708L24.4618 20.2323L25.0977 19.0605ZM26.2781 24.568C26.853 25.5031 26.5612 26.7272 25.6261 27.3022C25.0516 27.6554 24.3372 27.6932 23.7286 27.4027C23.7106 27.3941 23.6473 27.3701 23.6287 27.3634C22.6583 26.8367 22.2985 25.6232 22.8248 24.6527C22.8736 24.5666 22.9291 24.4846 22.9908 24.4074C23.2188 24.103 23.5302 23.8714 23.8873 23.7409C24.0923 23.6665 24.3078 23.625 24.5258 23.6182C24.7629 23.6112 24.9784 23.4787 25.0917 23.2703L25.5856 22.3592L26.7573 22.995L26.2614 23.9035C26.1482 24.1122 26.1545 24.3653 26.2781 24.568ZM31.9935 27.3361H27.4278C27.4565 27.2894 27.4838 27.2421 27.5098 27.1934C27.6027 27.0186 27.6794 26.8357 27.7391 26.6469C27.7491 26.6142 27.7611 26.5802 27.7704 26.5502C27.8226 26.3713 27.8593 26.1882 27.8804 26.003C27.8844 25.9664 27.8871 25.9297 27.8904 25.8931C27.9067 25.7033 27.9067 25.5123 27.8904 25.3225C27.8904 25.3058 27.8851 25.2905 27.8837 25.2739C27.8637 25.0905 27.8287 24.909 27.7791 24.7313C27.7738 24.712 27.7731 24.6913 27.7678 24.672H31.9935V27.3361ZM34.6596 27.3361H33.3265V24.67H34.6596V27.3361ZM38.6587 30.0022H35.9926V22.0039H38.6587V30.0022Z" fill="#E52929"/>
</svg>
