<svg width="28" height="28" viewBox="0 0 28 28" fill="none" xmlns="http://www.w3.org/2000/svg">
<path d="M5.19149 12.0128C7.47247 16.9837 11.5312 20.9358 16.5773 23.0783L17.3862 23.4389C19.2368 24.2639 21.4123 23.6372 22.541 21.9538L23.5981 20.3773C23.9417 19.8647 23.8371 19.1744 23.357 18.7869L19.7722 15.8931C19.2456 15.4681 18.4713 15.5671 18.0685 16.1109L16.9596 17.6083C14.1139 16.2037 11.8036 13.892 10.3999 11.0447L11.8963 9.9351C12.4399 9.53205 12.5388 8.75733 12.114 8.23048L9.22187 4.64342C8.83463 4.16313 8.14488 4.05837 7.63264 4.40204L6.04623 5.46638C4.35329 6.6022 3.73034 8.79693 4.57391 10.6535L5.19056 12.0108L5.19149 12.0128Z" fill="#E52929"/>
</svg>
