<svg width="26" height="26" viewBox="0 0 26 26" fill="none" xmlns="http://www.w3.org/2000/svg">
<path d="M24.9623 21.4129C24.9623 21.8629 24.8623 22.3254 24.6498 22.7754C24.4373 23.2254 24.1623 23.6504 23.7998 24.0504C23.1873 24.7254 22.5123 25.2129 21.7498 25.5254C20.9998 25.8379 20.1873 26.0004 19.3123 26.0004C18.0373 26.0004 16.6748 25.7004 15.2373 25.0879C13.7998 24.4754 12.3623 23.6504 10.9373 22.6129C9.49982 21.5629 8.13732 20.4004 6.83732 19.1129C5.54982 17.8129 4.38732 16.4504 3.34982 15.0254C2.32482 13.6004 1.49982 12.1754 0.899817 10.7629C0.299817 9.33792 -0.000183105 7.97542 -0.000183105 6.67542C-0.000183105 5.82542 0.149817 5.01292 0.449817 4.26292C0.749817 3.50042 1.22482 2.80042 1.88732 2.17542C2.68732 1.38792 3.56232 1.00042 4.48732 1.00042C4.83732 1.00042 5.18732 1.07542 5.49982 1.22542C5.82482 1.37542 6.11232 1.60042 6.33732 1.92542L9.23732 6.01292C9.46232 6.32542 9.62482 6.61292 9.73732 6.88792C9.84982 7.15042 9.91232 7.41292 9.91232 7.65042C9.91232 7.95042 9.82482 8.25042 9.64982 8.53792C9.48732 8.82542 9.24982 9.12542 8.94982 9.42542L7.99982 10.4129C7.86232 10.5504 7.79982 10.7129 7.79982 10.9129C7.79982 11.0129 7.81232 11.1004 7.83732 11.2004C7.87482 11.3004 7.91232 11.3754 7.93732 11.4504C8.16232 11.8629 8.54982 12.4004 9.09982 13.0504C9.66232 13.7004 10.2623 14.3629 10.9123 15.0254C11.5873 15.6879 12.2373 16.3004 12.8998 16.8629C13.5498 17.4129 14.0873 17.7879 14.5123 18.0129C14.5748 18.0379 14.6498 18.0754 14.7373 18.1129C14.8373 18.1504 14.9373 18.1629 15.0498 18.1629C15.2623 18.1629 15.4248 18.0879 15.5623 17.9504L16.5123 17.0129C16.8248 16.7004 17.1248 16.4629 17.4123 16.3129C17.6998 16.1379 17.9873 16.0504 18.2998 16.0504C18.5373 16.0504 18.7873 16.1004 19.0623 16.2129C19.3373 16.3254 19.6248 16.4879 19.9373 16.7004L24.0748 19.6379C24.3998 19.8629 24.6248 20.1254 24.7623 20.4379C24.8873 20.7504 24.9623 21.0629 24.9623 21.4129Z" fill="#E52929"/>
<path d="M20.6248 9.75054C20.6248 9.00054 20.0373 7.85054 19.1623 6.91304C18.3623 6.05054 17.2998 5.37554 16.2498 5.37554" stroke="#E52929" stroke-width="1.2" stroke-linecap="round" stroke-linejoin="round"/>
<path d="M24.9998 9.75042C24.9998 4.91292 21.0873 1.00042 16.2498 1.00042" stroke="#E52929" stroke-width="1.2" stroke-linecap="round" stroke-linejoin="round"/>
</svg>
