<svg width="18" height="18" viewBox="0 0 18 18" fill="none" xmlns="http://www.w3.org/2000/svg">
<rect x="-0.00012207" width="18" height="18" rx="3" fill="#2F89CE"/>
<path d="M4.20768 9.16834L6.27683 9.93988L7.08343 12.5351C7.1185 12.7104 7.32893 12.7455 7.46921 12.6403L8.62652 11.6934C8.73173 11.5882 8.90708 11.5882 9.04736 11.6934L11.1165 13.2014C11.2568 13.3066 11.4672 13.2365 11.5023 13.0611L13.0454 5.6964C13.0804 5.52105 12.9051 5.3457 12.7297 5.41584L4.20768 8.71243C3.99726 8.78257 3.99726 9.0982 4.20768 9.16834ZM6.97823 9.55411L11.0464 7.06413C11.1165 7.02906 11.1866 7.13427 11.1165 7.16934L7.78484 10.2906C7.67963 10.3958 7.57441 10.5361 7.57441 10.7114L7.46921 11.5531C7.46921 11.6583 7.29385 11.6934 7.25878 11.5531L6.83794 10.01C6.73273 9.83467 6.80288 9.62425 6.97823 9.55411Z" fill="white"/>
</svg>
