<svg width="40" height="40" viewBox="0 0 40 40" fill="none" xmlns="http://www.w3.org/2000/svg">
<g clip-path="url(#clip0_486_1213)">
<path d="M8.77026 12.1948C8.77018 12.1948 8.77001 12.1948 8.76993 12.1948C7.71093 12.1263 6.79368 12.922 6.71193 13.9801C6.63676 15.0418 7.43626 15.9634 8.49793 16.0388C8.54326 16.0388 8.58993 16.0435 8.63526 16.0435C9.6451 16.0412 10.4823 15.2606 10.5553 14.2535C10.6308 13.192 9.83168 12.2704 8.77026 12.1948ZM9.22393 14.1568C9.19976 14.4833 8.91651 14.729 8.58993 14.7068C8.2631 14.6837 8.01676 14.4003 8.03926 14.0735C8.06326 13.7631 8.32201 13.5235 8.63326 13.5235C8.6471 13.5235 8.65993 13.5235 8.67393 13.5235C9.00068 13.5465 9.24685 13.83 9.22393 14.1568Z" fill="#E52929"/>
<path d="M39.3334 14.6667C39.7015 14.6667 40 14.3682 40 14V8.29401C39.9986 7.43442 39.4481 6.67192 38.6327 6.40001L35.6867 5.41467L31.006 0.927338C30.3863 0.331087 29.5593 -0.00132934 28.6993 3.99557e-06H15.6807C14.8644 -0.000329338 14.0764 0.299337 13.4667 0.842004L8.36801 5.37534L2.78667 6.30867C1.17784 6.57134 -0.00266216 7.96259 4.50876e-06 9.59267V14C4.50876e-06 14.3682 0.298505 14.6667 0.666671 14.6667H4.05334C4.19867 15.6804 4.67467 16.6178 5.40734 17.3333H0.666671C0.298505 17.3333 4.50876e-06 17.6318 4.50876e-06 18V20.6667C4.50876e-06 21.0348 0.298505 21.3333 0.666671 21.3333H3.15667L15.9893 28.6667L3.15667 36H0.666671C0.298505 36 4.50876e-06 36.2985 4.50876e-06 36.6667V39.3334C4.50876e-06 39.7015 0.298505 40 0.666671 40H39.3334C39.7015 40 40 39.7015 40 39.3334V36.6667C40 36.2985 39.7015 36 39.3334 36H36.8433L24.0107 28.6667L36.8433 21.3333H39.3334C39.7015 21.3333 40 21.0348 40 20.6667V18C40 17.6318 39.7015 17.3333 39.3334 17.3333H35.926C36.6587 16.6178 37.1347 15.6804 37.28 14.6667H39.3334ZM24.6667 1.33334H28.6993C29.2153 1.33242 29.7114 1.53175 30.0833 1.88934L33.6754 5.33334H24.6667V1.33334ZM14.3513 1.83867C14.7176 1.51309 15.1906 1.33325 15.6807 1.33334H23.3333V5.33334H10.42L14.3513 1.83867ZM28.0533 14.6667C28.1987 15.6804 28.6747 16.6178 29.4073 17.3333H11.926C12.6587 16.6178 13.1347 15.6804 13.28 14.6667H28.0533ZM5.05334 11.0527C4.97801 11.1447 4.90734 11.2407 4.83934 11.338C4.82534 11.3587 4.81001 11.3773 4.79601 11.3973C4.71509 11.5173 4.64001 11.6409 4.57067 11.768C4.55267 11.8 4.53867 11.8347 4.52134 11.8673C4.47201 11.9627 4.42401 12.0587 4.38134 12.158C4.36001 12.2073 4.34267 12.258 4.32334 12.3073C4.28934 12.3933 4.25667 12.4787 4.22801 12.5667C4.20934 12.624 4.19467 12.682 4.17801 12.74C4.15467 12.824 4.13201 12.908 4.11134 12.994C4.09801 13.0553 4.08734 13.118 4.07601 13.1807C4.06667 13.2313 4.05401 13.2813 4.04667 13.3333H1.33334V10.6667H2.66667V9.33334H1.35667C1.46659 8.46042 2.13675 7.76342 3.00467 7.61934L8.72201 6.66667H23.3333V13.3333H13.286C13.2787 13.282 13.266 13.232 13.2567 13.1813C13.2453 13.118 13.2347 13.0553 13.2207 12.9933C13.202 12.908 13.1793 12.824 13.154 12.7407C13.1373 12.6827 13.1227 12.624 13.104 12.5667C13.0753 12.4787 13.0427 12.3933 13.0087 12.3073C12.9893 12.258 12.972 12.2073 12.9507 12.158C12.908 12.0587 12.86 11.9627 12.8107 11.8673C12.7933 11.8347 12.7793 11.8007 12.7613 11.768C12.692 11.6404 12.6169 11.5171 12.536 11.398C12.522 11.376 12.5053 11.3567 12.49 11.3353C12.4233 11.2387 12.3567 11.144 12.2787 11.0527C12.248 11.0147 12.212 10.9793 12.1813 10.942C12.1193 10.8707 12.0573 10.8 11.9913 10.7333C11.952 10.6933 11.9107 10.656 11.87 10.6173C11.8067 10.5573 11.7427 10.4973 11.676 10.4407C11.6307 10.4027 11.5847 10.3667 11.538 10.3307C11.4713 10.278 11.4047 10.2273 11.338 10.1787C11.288 10.1433 11.2373 10.112 11.186 10.0773C11.116 10.032 11.0453 9.98867 10.9727 9.94401C10.9187 9.91334 10.8647 9.88401 10.81 9.85534C10.736 9.81667 10.66 9.78067 10.584 9.74601C10.5273 9.72067 10.4713 9.69534 10.414 9.67201C10.3347 9.64001 10.254 9.61134 10.1727 9.58401C10.1153 9.56401 10.0587 9.54334 10 9.52601C9.91401 9.50067 9.82667 9.48001 9.73934 9.45934C9.68267 9.44601 9.62667 9.43134 9.56934 9.42001C9.47134 9.40067 9.36934 9.38734 9.27201 9.37401C9.22267 9.36801 9.17467 9.35867 9.12467 9.35401C8.97334 9.34201 8.82067 9.33334 8.66667 9.33334C8.51267 9.33334 8.36001 9.34201 8.21001 9.35667C8.16001 9.36134 8.11201 9.37067 8.06267 9.37667C7.96267 9.39001 7.86267 9.40334 7.76534 9.42267C7.70801 9.43401 7.65201 9.44867 7.59601 9.46201C7.50801 9.48267 7.42067 9.50401 7.33467 9.52867C7.27601 9.54601 7.21934 9.56667 7.16201 9.58667C7.08067 9.61401 7.00001 9.64267 6.92067 9.67467C6.86334 9.69801 6.80734 9.72334 6.75067 9.74867C6.67467 9.78334 6.59867 9.81934 6.52467 9.85801C6.47001 9.88667 6.41601 9.91601 6.36201 9.94667C6.28934 9.98801 6.21867 10.0313 6.14801 10.08C6.09734 10.1127 6.04667 10.1467 5.99667 10.1807C5.93001 10.2293 5.86001 10.2807 5.79667 10.3333C5.75001 10.3693 5.70401 10.4053 5.65867 10.4433C5.59201 10.5 5.52534 10.56 5.46467 10.62C5.42401 10.6587 5.38267 10.696 5.34334 10.736C5.27667 10.8027 5.21534 10.8733 5.15334 10.9447C5.11801 10.9793 5.08334 11.0147 5.05267 11.0527H5.05334ZM5.33334 14C5.33334 12.1591 6.82576 10.6667 8.66667 10.6667C10.5076 10.6667 12 12.1591 12 14C12 15.8409 10.5076 17.3333 8.66667 17.3333C6.82667 17.3312 5.33551 15.84 5.33334 14ZM16.8407 29.716C16.8407 29.7253 16.8493 29.734 16.8527 29.7433C16.917 29.9252 16.9968 30.1012 17.0913 30.2693C17.108 30.3 17.1253 30.3293 17.1433 30.3593C17.2421 30.5259 17.3553 30.6837 17.4813 30.8307C17.4873 30.8373 17.4913 30.846 17.4973 30.8527L8.48934 36H5.84401L16.8407 29.716ZM18.676 31.716C19.5198 32.0877 20.4809 32.0877 21.3247 31.716L28.8227 36H11.1767L18.676 31.716ZM38.6667 37.3334V38.6667H1.33334V37.3334H38.6667ZM34.156 36H31.5107L21.674 30.3793C21.467 30.2615 21.2129 30.263 21.0073 30.3833C20.3898 30.7593 19.6142 30.7593 18.9967 30.3833C18.3809 30.031 18.0007 29.3762 18 28.6667C18 28.6079 17.9922 28.5493 17.9767 28.4927C17.9727 28.4773 17.964 28.4633 17.9587 28.4487C17.9462 28.4085 17.9299 28.3697 17.91 28.3327C17.9007 28.316 17.886 28.3027 17.8753 28.2867C17.8547 28.2545 17.8313 28.2242 17.8053 28.196C17.7862 28.1796 17.7662 28.1643 17.7453 28.15C17.7212 28.128 17.6953 28.1079 17.668 28.09L5.84401 21.3333H8.48934L18.326 26.954C18.533 27.0718 18.7871 27.0703 18.9927 26.95C19.6102 26.5741 20.3858 26.5741 21.0033 26.95C21.6191 27.3023 21.9993 27.9573 22 28.6667C22 28.7254 22.0078 28.784 22.0233 28.8407C22.0273 28.856 22.036 28.87 22.0413 28.8847C22.0538 28.9248 22.0701 28.9637 22.09 29.0007C22.0993 29.0173 22.114 29.0307 22.1247 29.0467C22.1453 29.0788 22.1688 29.1092 22.1947 29.1373C22.2138 29.1538 22.2338 29.1692 22.2547 29.1833C22.2788 29.2053 22.3047 29.2254 22.332 29.2433L34.156 36ZM11.1773 21.3333H28.8233L21.324 25.6187C20.4803 25.2463 19.519 25.2463 18.6753 25.6187L11.1773 21.3333ZM23.1593 27.6173C23.1593 27.608 23.1507 27.5993 23.1473 27.59C23.083 27.4082 23.0032 27.2322 22.9087 27.064C22.892 27.0333 22.8747 27.004 22.8567 26.974C22.7579 26.8074 22.6448 26.6497 22.5187 26.5027C22.5127 26.496 22.5087 26.4873 22.5027 26.4807L31.5107 21.3333H34.156L23.1593 27.6173ZM38.6667 18.6667V20H1.33334V18.6667H38.6667ZM32.6667 17.3333C30.8258 17.3333 29.3333 15.8409 29.3333 14C29.3333 12.1591 30.8258 10.6667 32.6667 10.6667C34.5076 10.6667 36 12.1591 36 14C35.9978 15.84 34.5068 17.3312 32.6667 17.3333ZM37.2207 12.9933C37.202 12.908 37.1793 12.824 37.154 12.7407C37.1373 12.6827 37.1227 12.624 37.104 12.5667C37.0753 12.4787 37.0427 12.3933 37.0087 12.3073C36.9893 12.258 36.972 12.2073 36.9507 12.158C36.908 12.0587 36.86 11.9627 36.8107 11.8673C36.7934 11.8347 36.7793 11.8007 36.7613 11.768C36.692 11.6404 36.6169 11.5171 36.536 11.398C36.522 11.376 36.5053 11.3567 36.49 11.3353C36.4234 11.2387 36.3567 11.144 36.2787 11.0527C36.248 11.0147 36.212 10.9793 36.1813 10.942C36.1194 10.8707 36.0574 10.8 35.9913 10.7333C35.952 10.6933 35.9107 10.656 35.87 10.6173C35.8067 10.5573 35.7427 10.4973 35.676 10.4407C35.6307 10.4027 35.5847 10.3667 35.538 10.3307C35.4713 10.278 35.4047 10.2273 35.338 10.1787C35.288 10.1433 35.2373 10.112 35.186 10.0773C35.116 10.032 35.0453 9.98867 34.9727 9.94401C34.9187 9.91334 34.8647 9.88401 34.81 9.85534C34.736 9.81667 34.66 9.78067 34.584 9.74601C34.5273 9.72067 34.4713 9.69534 34.414 9.67201C34.3347 9.64001 34.254 9.61134 34.1727 9.58401C34.1153 9.56401 34.0587 9.54334 34 9.52601C33.914 9.50067 33.8267 9.48001 33.7393 9.45934C33.6827 9.44601 33.6267 9.43134 33.5693 9.42001C33.4713 9.40067 33.3694 9.38734 33.272 9.37401C33.2227 9.36801 33.1747 9.35867 33.1247 9.35401C32.9733 9.34201 32.8207 9.33334 32.6667 9.33334C32.5127 9.33334 32.36 9.34201 32.21 9.35667C32.16 9.36134 32.112 9.37067 32.0627 9.37667C31.9627 9.39001 31.8627 9.40334 31.7653 9.42267C31.708 9.43401 31.652 9.44867 31.596 9.46201C31.508 9.48267 31.4207 9.50401 31.3347 9.52867C31.276 9.54601 31.2193 9.56667 31.162 9.58667C31.0807 9.61401 31 9.64267 30.9207 9.67467C30.8633 9.69801 30.8073 9.72334 30.7507 9.74867C30.6747 9.78334 30.5987 9.81934 30.5247 9.85801C30.47 9.88667 30.416 9.91601 30.362 9.94667C30.2893 9.98801 30.2187 10.0313 30.148 10.08C30.0973 10.1127 30.0467 10.1467 29.9967 10.1807C29.93 10.2293 29.8633 10.2807 29.7967 10.3333C29.75 10.3693 29.704 10.4053 29.6587 10.4433C29.592 10.5 29.5253 10.56 29.4647 10.62C29.424 10.6587 29.3827 10.696 29.3433 10.736C29.2767 10.8027 29.2153 10.8733 29.1533 10.9447C29.1213 10.982 29.0867 11.0173 29.056 11.0553C28.9807 11.1473 28.91 11.2433 28.842 11.3407C28.828 11.3613 28.8127 11.38 28.7987 11.4C28.7183 11.52 28.6431 11.6436 28.5733 11.7707C28.5553 11.8027 28.5413 11.8373 28.524 11.87C28.4747 11.9653 28.4267 12.0613 28.384 12.1607C28.3627 12.21 28.3453 12.2607 28.326 12.31C28.292 12.396 28.2593 12.4813 28.2307 12.5693C28.212 12.6267 28.1973 12.6847 28.1807 12.7427C28.1573 12.8267 28.1347 12.9107 28.114 12.9967C28.1007 13.058 28.09 13.1207 28.0787 13.1833C28.0693 13.234 28.0567 13.284 28.0493 13.336H24.6667V6.66667H35.2253L38.2107 7.66201C38.4829 7.75267 38.6664 8.00717 38.6667 8.29401V8.66667H37.3334V10H38.6667V13.3333H37.286C37.2787 13.282 37.266 13.232 37.2567 13.1813C37.2453 13.118 37.2347 13.0553 37.2207 12.9933Z" fill="#E52929"/>
<path d="M32.7703 12.1947C32.7701 12.1947 32.77 12.1947 32.7699 12.1947C31.7113 12.1273 30.7947 12.9224 30.7119 13.98C30.6368 15.0417 31.4363 15.9632 32.4979 16.0387C32.5433 16.0387 32.5899 16.0433 32.6353 16.0433C33.6451 16.0411 34.4823 15.2605 34.5553 14.2533C34.6308 13.1919 33.8316 12.2702 32.7703 12.1947ZM33.2258 14.1567C33.2023 14.4837 32.919 14.7304 32.5918 14.7087C32.265 14.6856 32.0187 14.4022 32.0412 14.0753C32.0642 13.765 32.322 13.5246 32.6332 13.5233C32.6478 13.5233 32.6612 13.5233 32.6758 13.5233C33.0026 13.5464 33.2488 13.8299 33.2258 14.1567Z" fill="#E52929"/>
<path d="M22 8H18V9.33334H22V8Z" fill="#E52929"/>
<path d="M20.6668 28H19.3335V29.3333H20.6668V28Z" fill="#E52929"/>
</g>
<defs>
<clipPath id="clip0_486_1213">
<rect width="40" height="40" fill="white"/>
</clipPath>
</defs>
</svg>
