<svg width="18" height="18" viewBox="0 0 18 18" fill="none" xmlns="http://www.w3.org/2000/svg">
<rect x="-0.00012207" width="18" height="18" rx="3" fill="#48C95F"/>
<path d="M12.5669 5.42812C11.6779 4.54219 10.4926 4.05 9.24134 4.05C6.64012 4.05 4.5328 6.15 4.5328 8.74219C4.5328 9.5625 4.76329 10.3828 5.15841 11.0719L4.49988 13.5L7.00232 12.8437C7.69378 13.2047 8.4511 13.4016 9.24134 13.4016C11.8426 13.4016 13.9499 11.3016 13.9499 8.70937C13.917 7.49531 13.456 6.31406 12.5669 5.42812ZM11.5133 10.4156C11.4145 10.6781 10.9535 10.9406 10.723 10.9734C10.5255 11.0062 10.2621 11.0062 9.99866 10.9406C9.83402 10.875 9.60354 10.8094 9.34012 10.6781C8.15476 10.1859 7.39744 9.00469 7.33159 8.90625C7.26573 8.84062 6.83768 8.28281 6.83768 7.69219C6.83768 7.10156 7.13402 6.83906 7.2328 6.70781C7.33158 6.57656 7.46329 6.57656 7.56207 6.57656C7.62793 6.57656 7.72671 6.57656 7.79256 6.57656C7.85841 6.57656 7.95719 6.54375 8.05597 6.77344C8.15476 7.00312 8.38524 7.59375 8.41817 7.62656C8.4511 7.69219 8.4511 7.75781 8.41817 7.82344C8.38524 7.88906 8.35232 7.95469 8.28646 8.02031C8.22061 8.08594 8.15475 8.18437 8.12183 8.21719C8.05597 8.28281 7.99012 8.34844 8.05597 8.44687C8.12183 8.57812 8.35232 8.93906 8.71451 9.26719C9.17549 9.66094 9.53768 9.79219 9.66939 9.85781C9.8011 9.92344 9.86695 9.89062 9.9328 9.825C9.99866 9.75937 10.2291 9.49687 10.295 9.36562C10.3609 9.23437 10.4596 9.26719 10.5584 9.3C10.6572 9.33281 11.2499 9.62812 11.3487 9.69375C11.4804 9.75937 11.5462 9.79219 11.5791 9.825C11.6121 9.92344 11.6121 10.1531 11.5133 10.4156Z" fill="white"/>
</svg>
