<svg width="60" height="60" viewBox="0 0 60 60" fill="none" xmlns="http://www.w3.org/2000/svg">
<circle cx="30" cy="24" r="9" fill="white"/>
<path fill-rule="evenodd" clip-rule="evenodd" d="M30 4.6875C24.5309 4.69048 19.2867 6.86452 15.4196 10.7319C11.5526 14.5993 9.37904 19.8437 9.37656 25.3128C9.76245 29.5122 11.2322 33.5394 13.6419 37.0001C17.8267 43.3176 22.6512 49.1871 28.0392 54.5156C28.5639 55.0266 29.2675 55.3126 30 55.3126C30.7324 55.3126 31.4359 55.0266 31.9607 54.5156C37.3487 49.1872 42.1733 43.3177 46.3581 37.0002C48.7678 33.5394 50.2376 29.5123 50.6235 25.3129C50.621 19.8438 48.4474 14.5994 44.5804 10.732C40.7133 6.86456 35.4691 4.6905 30 4.6875ZM30 15.9375C28.3312 15.9374 26.6999 16.4321 25.3123 17.3591C23.9246 18.2862 22.8431 19.6039 22.2044 21.1456C21.5656 22.6873 21.3984 24.3838 21.7239 26.0206C22.0494 27.6573 22.8529 29.1608 24.0328 30.3409C25.2128 31.5209 26.7161 32.3246 28.3529 32.6503C29.9896 32.9759 31.6861 32.8089 33.2279 32.1704C34.7697 31.5319 36.0875 30.4505 37.0147 29.063C37.9419 27.6755 38.4368 26.0442 38.4369 24.3754C38.4358 22.138 37.5466 19.9926 35.9646 18.4105C34.3827 16.8283 32.2374 15.9389 30 15.9375Z" fill="#E52929"/>
</svg>
